<svg xmlns="http://www.w3.org/2000/svg" width="40.964" height="32.463" viewBox="0 0 40.964 32.463">
  <g id="Hamburger" transform="translate(0.5 0.5)">
    <path id="Path_17" data-name="Path 17" d="M0,23.341v1.924c0,.434,1.117.807,2.358.745l17.438-.5h.372l17.438.5c1.241.062,2.358-.31,2.358-.745V23.341c0-.434-1.117-.807-2.358-.745l-17.438.559H19.8L2.42,22.6C1.117,22.6,0,22.906,0,23.341Z" transform="translate(0 -8.571)" fill="#565656" stroke="#707070" stroke-width="1"/>
    <path id="Path_18" data-name="Path 18" d="M2.172,48.2H37.73c1.179,0,2.172-.559,2.172-1.3v-.621c0-.683-.869-1.241-1.986-1.241L20.106,44.1h-.372l-17.748.931C.869,45.093,0,45.651,0,46.272v.621C0,47.637.993,48.2,2.172,48.2Z" transform="translate(0 -16.733)" fill="#565656" stroke="#707070" stroke-width="1"/>
    <path id="Path_19" data-name="Path 19" d="M37.73,0H2.172C.993,0,0,.559,0,1.3v.621c0,.683.869,1.241,1.986,1.241L19.8,4.1h.372l17.81-.931c1.117-.062,1.986-.621,1.986-1.241V1.3C39.9.559,38.91,0,37.73,0Z" transform="translate(0)" fill="#565656" stroke="#707070" stroke-width="1"/>
  </g>
</svg>
